<?xml version="1.0" standalone="no"?>
<svg version="1.0" xmlns="http://www.w3.org/2000/svg"
 width="200" height="200" viewBox="0 0 2000 2000"
 preserveAspectRatio="xMidYMid meet">
<g transform="translate(0,2000) scale(0.1,-0.1)"
fill="#ffffff" stroke="none">
<path d="M1560 1674 c-52 -49 -73 -78 -81 -108 -12 -46 -5 -161 11 -181 6 -7
38 -15 73 -17 142 -12 227 -101 227 -239 0 -87 -18 -137 -66 -186 -46 -46
-117 -73 -190 -73 -42 0 -43 -1 -55 -42 -12 -44 -8 -166 6 -188 11 -18 142 -7
227 20 76 23 154 80 193 139 108 163 108 459 1 629 -47 75 -142 138 -242 163
-27 7 -51 14 -53 16 -3 2 12 21 33 42 41 42 42 62 6 81 -18 10 -29 4 -90 -56z"/>
<path d="M237 1599 c-99 -23 -182 -99 -212 -194 -13 -43 -16 -81 -13 -168 3
-105 6 -116 37 -175 41 -76 86 -113 169 -141 52 -18 86 -21 216 -21 174 0 166
-4 166 85 0 89 7 85 -159 85 -152 1 -203 11 -243 47 -34 30 -50 73 -51 132 0
77 24 125 82 159 l46 27 305 5 305 5 0 80 0 80 -305 2 c-168 0 -322 -3 -343
-8z"/>
<path d="M1315 1603 c-246 -33 -386 -212 -385 -496 1 -266 127 -429 360 -468
80 -13 126 -11 140 6 17 21 18 189 0 210 -7 8 -28 15 -49 15 -91 0 -192 54
-227 121 -27 52 -36 123 -25 186 21 112 101 180 223 190 40 3 68 11 76 21 15
19 17 175 2 203 -11 19 -39 22 -115 12z"/>
<path d="M307 1334 c-8 -9 -10 -126 -1 -148 5 -14 29 -16 158 -16 138 0 156
-2 196 -22 63 -33 83 -66 88 -143 5 -77 -8 -114 -53 -154 -51 -44 -106 -51
-410 -51 l-273 0 -6 -47 c-3 -27 -2 -64 2 -83 l8 -35 314 0 c357 0 382 4 463
75 66 59 90 121 95 252 4 90 1 117 -17 171 -27 81 -76 138 -149 174 -55 27
-64 28 -232 31 -96 2 -178 0 -183 -4z"/>
<path d="M1613 595 c-7 -21 3 -30 20 -17 8 7 18 7 27 2 23 -15 60 -12 67 5 7
21 -3 30 -20 17 -8 -7 -18 -7 -27 -2 -23 15 -60 12 -67 -5z"/>
<path d="M69 523 c-6 -16 -24 -65 -39 -110 -28 -80 -28 -83 -9 -83 12 0 23 10
29 25 8 21 16 25 54 25 38 0 45 -3 50 -25 4 -16 13 -25 26 -25 11 0 20 4 20 8
0 8 -50 159 -65 195 -12 28 -54 22 -66 -10z m50 -60 c15 -53 15 -53 -20 -53
-26 0 -30 3 -24 18 3 9 9 29 12 45 8 38 20 34 32 -10z"/>
<path d="M230 470 c0 -43 5 -90 11 -104 14 -30 67 -50 109 -41 48 11 60 38 60
137 0 81 -2 88 -20 88 -18 0 -20 -7 -20 -83 0 -91 -8 -107 -52 -107 -37 0 -48
28 -48 121 0 62 -2 69 -20 69 -18 0 -20 -7 -20 -80z"/>
<path d="M440 535 c0 -15 3 -17 43 -19 21 -1 22 -6 25 -93 2 -85 4 -93 22 -93
18 0 20 7 20 95 l0 95 30 0 c20 0 30 5 30 15 0 12 -16 15 -85 15 -69 0 -85 -3
-85 -15z"/>
<path d="M655 526 c-31 -32 -42 -101 -22 -149 20 -46 74 -66 131 -47 45 14 66
52 66 115 0 38 -5 52 -29 76 -39 39 -109 41 -146 5z m111 -20 c23 -17 27 -103
5 -129 -16 -20 -71 -23 -89 -5 -7 7 -12 36 -12 64 0 43 4 56 22 68 28 20 49
20 74 2z"/>
<path d="M877 543 c-2 -4 -5 -54 -5 -110 -1 -95 1 -103 19 -103 17 0 19 8 19
92 0 53 4 88 9 83 5 -6 21 -47 36 -92 22 -70 30 -83 48 -83 19 0 27 13 52 88
l30 87 3 -87 c3 -80 5 -88 22 -88 19 0 20 7 20 111 l0 110 -32 -3 c-31 -3 -35
-7 -62 -81 -16 -42 -31 -75 -33 -73 -3 2 -17 37 -32 78 -25 68 -29 73 -58 76
-17 2 -33 -1 -36 -5z"/>
<path d="M1232 523 c-24 -62 -62 -175 -62 -184 0 -5 9 -9 20 -9 13 0 22 9 26
25 5 22 12 25 50 25 38 0 44 -3 50 -25 4 -18 13 -25 30 -25 13 0 24 1 24 3 0
1 -17 49 -38 107 -33 94 -40 105 -63 108 -21 2 -28 -3 -37 -25z m47 -45 c25
-68 25 -68 -13 -68 l-35 0 16 45 c8 25 17 45 19 45 3 0 8 -10 13 -22z"/>
<path d="M1419 520 c-29 -29 -31 -35 -27 -90 4 -63 26 -100 58 -100 10 0 21
-7 24 -16 9 -23 8 -24 -14 -24 -11 0 -20 -4 -20 -9 0 -16 20 -23 47 -16 20 5
24 11 20 31 -3 20 1 27 19 34 42 16 29 36 -23 36 -42 -1 -49 2 -61 27 -32 65
18 144 75 118 30 -14 42 -7 27 17 -7 11 -27 18 -53 20 -35 3 -46 -1 -72 -28z"/>
<path d="M1606 447 c-20 -57 -36 -106 -36 -110 0 -4 9 -7 20 -7 13 0 22 9 26
25 5 22 12 25 50 25 38 0 46 -4 54 -25 6 -16 17 -25 31 -25 13 0 19 5 16 13
-2 6 -19 56 -38 109 -31 90 -36 98 -60 98 -24 0 -29 -8 -63 -103z m73 31 c25
-68 25 -68 -13 -68 l-35 0 16 45 c8 25 17 45 19 45 3 0 8 -10 13 -22z"/>
<path d="M1823 526 c-25 -22 -28 -30 -28 -90 0 -85 21 -109 93 -110 60 -1 87
19 103 78 13 50 -1 108 -34 131 -34 24 -101 19 -134 -9z m109 -23 c23 -21 25
-104 2 -127 -40 -40 -104 -5 -104 57 0 72 57 111 102 70z"/>
</g>
</svg>
